<?xml version="1.0" encoding="utf-8"?>
<!-- Generator: Adobe Illustrator 16.0.0, SVG Export Plug-In . SVG Version: 6.00 Build 0)  -->
<!DOCTYPE svg PUBLIC "-//W3C//DTD SVG 1.1//EN" "http://www.w3.org/Graphics/SVG/1.1/DTD/svg11.dtd">
<svg version="1.1" id="Layer_1" xmlns="http://www.w3.org/2000/svg" xmlns:xlink="http://www.w3.org/1999/xlink" x="0px" y="0px"
	 width="297.167px" height="60px" viewBox="0 0 297.167 60" enable-background="new 0 0 297.167 60" xml:space="preserve">
<g>
	<g>
		<g>
			<g>
				<path fill="#006CB6" d="M165.888,24.979c-0.074,0.147-0.158,0.25-0.256,0.31c-0.096,0.06-0.211,0.09-0.346,0.09
					c-0.133,0-0.282-0.051-0.449-0.155c-0.166-0.104-0.363-0.218-0.59-0.345c-0.227-0.126-0.492-0.241-0.795-0.345
					s-0.662-0.155-1.074-0.155c-0.374,0-0.699,0.045-0.977,0.135c-0.276,0.09-0.51,0.215-0.699,0.375
					c-0.189,0.16-0.332,0.352-0.426,0.575c-0.094,0.224-0.142,0.469-0.142,0.735c0,0.34,0.097,0.624,0.285,0.85
					c0.188,0.227,0.438,0.42,0.754,0.58s0.67,0.304,1.069,0.43c0.398,0.127,0.81,0.262,1.226,0.405
					c0.417,0.144,0.826,0.31,1.228,0.5c0.398,0.19,0.758,0.431,1.07,0.72c0.313,0.291,0.563,0.646,0.756,1.065
					c0.188,0.42,0.285,0.931,0.285,1.528c0,0.654-0.113,1.267-0.339,1.837c-0.223,0.569-0.549,1.065-0.979,1.489
					c-0.43,0.422-0.953,0.756-1.573,1c-0.619,0.24-1.33,0.362-2.132,0.362c-0.459,0-0.911-0.045-1.358-0.136
					c-0.444-0.09-0.875-0.219-1.284-0.387c-0.408-0.164-0.793-0.364-1.148-0.6c-0.355-0.234-0.676-0.494-0.954-0.781l0.778-1.289
					c0.074-0.094,0.162-0.172,0.267-0.232s0.218-0.098,0.345-0.098c0.167,0,0.35,0.068,0.541,0.205
					c0.192,0.139,0.422,0.289,0.686,0.455c0.265,0.166,0.574,0.317,0.932,0.455c0.357,0.139,0.784,0.205,1.284,0.205
					c0.769,0,1.36-0.183,1.78-0.545c0.42-0.363,0.629-0.886,0.629-1.563c0-0.383-0.094-0.69-0.284-0.934
					c-0.188-0.238-0.44-0.438-0.755-0.604c-0.313-0.164-0.67-0.303-1.069-0.416s-0.808-0.236-1.222-0.37
					c-0.411-0.133-0.817-0.293-1.219-0.479c-0.399-0.188-0.758-0.431-1.069-0.729c-0.313-0.3-0.563-0.675-0.757-1.125
					c-0.188-0.45-0.284-1.005-0.284-1.665c0-0.526,0.104-1.04,0.315-1.54c0.209-0.5,0.517-0.943,0.92-1.33
					c0.4-0.387,0.896-0.697,1.482-0.93c0.587-0.233,1.257-0.35,2.01-0.35c0.854,0,1.643,0.134,2.36,0.4
					c0.72,0.267,1.333,0.64,1.841,1.12L165.888,24.979z"/>
				<path fill="#006CB6" d="M175.298,31.189v5.619h-2.689v-5.619l-5.271-8.84h2.37c0.232,0,0.419,0.057,0.556,0.17
					c0.138,0.113,0.251,0.257,0.347,0.43l2.647,4.83c0.153,0.288,0.287,0.558,0.399,0.815c0.113,0.256,0.218,0.508,0.312,0.756
					c0.086-0.254,0.187-0.509,0.295-0.766c0.109-0.256,0.241-0.525,0.396-0.805l2.632-4.83c0.071-0.146,0.185-0.283,0.329-0.41
					c0.146-0.126,0.332-0.19,0.561-0.19h2.383L175.298,31.189z"/>
				<path fill="#006CB6" d="M184.738,31.16v5.648h-2.689V22.35h4.41c0.986,0,1.831,0.102,2.535,0.305
					c0.703,0.203,1.279,0.488,1.729,0.854c0.45,0.367,0.78,0.805,0.99,1.315c0.21,0.51,0.314,1.072,0.314,1.685
					c0,0.486-0.07,0.946-0.215,1.38c-0.146,0.434-0.353,0.827-0.619,1.179c-0.271,0.354-0.604,0.664-1,0.931
					c-0.396,0.267-0.852,0.479-1.355,0.642c0.34,0.191,0.633,0.469,0.881,0.828l3.619,5.342h-2.42c-0.232,0-0.432-0.047-0.596-0.142
					c-0.162-0.094-0.301-0.228-0.414-0.399l-3.041-4.629c-0.113-0.175-0.238-0.299-0.375-0.371
					c-0.137-0.071-0.338-0.107-0.604-0.107L184.738,31.16L184.738,31.16z M184.738,29.229h1.681c0.507,0,0.948-0.063,1.325-0.188
					c0.375-0.126,0.687-0.305,0.93-0.523c0.243-0.224,0.425-0.488,0.546-0.796c0.119-0.307,0.181-0.644,0.181-1.01
					c0-0.733-0.242-1.296-0.727-1.69c-0.482-0.393-1.223-0.59-2.215-0.59h-1.721V29.229z"/>
				<path fill="#006CB6" d="M198.088,36.811h-2.699V22.35h2.699V36.811z"/>
			</g>
		</g>
	</g>
	<g>
		<g>
			<g>
				<path fill="#1B9BFF" d="M204.779,36.677v-14.15h4.066c0.809,0,1.508,0.08,2.098,0.24c0.59,0.16,1.078,0.395,1.465,0.705
					c0.388,0.31,0.676,0.688,0.865,1.135c0.188,0.447,0.285,0.953,0.285,1.52c0,0.373-0.064,0.733-0.195,1.08
					c-0.129,0.347-0.317,0.667-0.563,0.96c-0.248,0.293-0.549,0.548-0.905,0.765c-0.354,0.217-0.765,0.383-1.226,0.495
					c1.112,0.167,1.971,0.537,2.569,1.11c0.601,0.572,0.898,1.33,0.898,2.27c0,0.603-0.105,1.144-0.318,1.62
					c-0.213,0.479-0.522,0.888-0.932,1.22c-0.404,0.334-0.904,0.59-1.5,0.769c-0.594,0.176-1.27,0.267-2.021,0.267L204.779,36.677
					L204.779,36.677z M205.798,29.146h3.068c0.654,0,1.213-0.082,1.676-0.25c0.463-0.166,0.844-0.389,1.141-0.66
					c0.297-0.272,0.516-0.583,0.654-0.929c0.141-0.347,0.211-0.703,0.211-1.07c0-0.953-0.303-1.675-0.906-2.165
					c-0.604-0.49-1.533-0.735-2.795-0.735h-3.049V29.146L205.798,29.146z M205.798,29.896v5.961h3.549
					c1.247,0,2.188-0.271,2.82-0.809c0.632-0.533,0.949-1.292,0.949-2.265c0-0.447-0.084-0.851-0.254-1.205s-0.416-0.66-0.734-0.91
					c-0.32-0.25-0.715-0.44-1.182-0.575c-0.467-0.133-0.996-0.197-1.59-0.197H205.798L205.798,29.896z"/>
				<path fill="#1B9BFF" d="M218.767,23.297c0,0.12-0.023,0.231-0.074,0.335s-0.115,0.195-0.192,0.275
					c-0.08,0.08-0.177,0.144-0.279,0.19c-0.104,0.047-0.221,0.07-0.341,0.07s-0.23-0.023-0.34-0.07c-0.105-0.046-0.2-0.11-0.28-0.19
					c-0.08-0.08-0.146-0.171-0.188-0.275c-0.047-0.104-0.069-0.215-0.069-0.335s0.022-0.235,0.069-0.345
					c0.047-0.11,0.107-0.205,0.188-0.285s0.175-0.144,0.28-0.19c0.104-0.046,0.22-0.07,0.34-0.07s0.23,0.023,0.341,0.07
					c0.104,0.047,0.199,0.11,0.279,0.19c0.077,0.08,0.146,0.175,0.192,0.285C218.744,23.062,218.767,23.177,218.767,23.297z
					 M218.347,26.727v9.95h-0.949v-9.95H218.347z"/>
				<path fill="#1B9BFF" d="M221.967,36.677v-14.55h0.95l0.01,6.34c0.439-0.586,0.949-1.05,1.529-1.39
					c0.58-0.34,1.234-0.51,1.961-0.51c1.22,0,2.172,0.421,2.854,1.265c0.687,0.844,1.024,2.111,1.024,3.805
					c0,0.729-0.095,1.405-0.285,2.035c-0.188,0.63-0.471,1.178-0.841,1.641s-0.824,0.828-1.361,1.097
					c-0.537,0.268-1.156,0.397-1.857,0.397c-0.691,0-1.291-0.135-1.793-0.404c-0.5-0.271-0.93-0.668-1.291-1.192l-0.059,1.222
					c-0.021,0.166-0.109,0.25-0.269,0.25L221.967,36.677L221.967,36.677z M226.142,27.327c-0.66,0-1.259,0.17-1.793,0.51
					c-0.533,0.34-1.012,0.813-1.432,1.42v5.25c0.381,0.573,0.801,0.976,1.262,1.205s0.992,0.345,1.592,0.345
					c0.588,0,1.104-0.104,1.543-0.32c0.44-0.213,0.813-0.514,1.107-0.901c0.297-0.394,0.52-0.854,0.67-1.397
					s0.227-1.145,0.227-1.795c0-1.48-0.271-2.568-0.822-3.268C227.949,27.675,227.165,27.327,226.142,27.327z"/>
				<path fill="#1B9BFF" d="M234.017,22.127v14.55h-0.949v-14.55H234.017z"/>
				<path fill="#1B9BFF" d="M239.187,23.297c0,0.12-0.025,0.231-0.074,0.335c-0.051,0.104-0.112,0.195-0.192,0.275
					c-0.08,0.08-0.177,0.144-0.28,0.19c-0.104,0.047-0.22,0.07-0.341,0.07c-0.119,0-0.229-0.023-0.34-0.07
					c-0.104-0.046-0.199-0.11-0.279-0.19c-0.079-0.08-0.146-0.171-0.188-0.275c-0.045-0.104-0.068-0.215-0.068-0.335
					s0.023-0.235,0.068-0.345c0.047-0.11,0.109-0.205,0.188-0.285c0.08-0.08,0.175-0.144,0.279-0.19s0.221-0.07,0.34-0.07
					c0.121,0,0.231,0.023,0.341,0.07c0.104,0.047,0.2,0.11,0.28,0.19s0.146,0.175,0.192,0.285
					C239.162,23.062,239.187,23.177,239.187,23.297z M238.767,26.727v9.95h-0.949v-9.95H238.767z"/>
				<path fill="#1B9BFF" d="M246.078,26.567c0.713,0,1.352,0.122,1.914,0.365c0.563,0.244,1.039,0.588,1.426,1.035
					c0.387,0.447,0.682,0.985,0.885,1.615c0.204,0.63,0.307,1.335,0.307,2.116c0,0.778-0.103,1.481-0.307,2.108
					c-0.203,0.627-0.498,1.164-0.885,1.608s-0.862,0.79-1.426,1.028s-1.201,0.359-1.914,0.359c-0.715,0-1.354-0.121-1.916-0.359
					c-0.563-0.238-1.039-0.584-1.43-1.028c-0.393-0.444-0.688-0.981-0.893-1.608s-0.307-1.33-0.307-2.108
					c0-0.78,0.104-1.485,0.307-2.116c0.203-0.63,0.5-1.168,0.893-1.615c0.391-0.447,0.867-0.792,1.43-1.035
					C244.724,26.688,245.363,26.567,246.078,26.567z M246.078,36.057c0.593,0,1.111-0.102,1.555-0.305s0.813-0.495,1.109-0.875
					c0.298-0.381,0.519-0.838,0.666-1.375c0.146-0.537,0.22-1.139,0.22-1.805c0-0.66-0.073-1.262-0.22-1.801
					c-0.147-0.539-0.368-1.002-0.666-1.387c-0.297-0.383-0.666-0.678-1.109-0.885s-0.962-0.31-1.555-0.31
					c-0.594,0-1.112,0.104-1.557,0.31c-0.443,0.206-0.813,0.501-1.109,0.885c-0.295,0.387-0.52,0.848-0.67,1.387
					c-0.149,0.541-0.225,1.141-0.225,1.801c0,0.666,0.072,1.268,0.225,1.805s0.373,0.994,0.67,1.375
					c0.298,0.38,0.666,0.672,1.109,0.875C244.963,35.955,245.484,36.057,246.078,36.057z"/>
				<path fill="#1B9BFF" d="M255.816,36.837c-0.672,0-1.195-0.187-1.57-0.56c-0.37-0.375-0.559-0.951-0.559-1.73v-6.8h-1.431
					c-0.073,0-0.134-0.02-0.181-0.06s-0.069-0.096-0.069-0.17v-0.37l1.7-0.12l0.236-3.56c0.008-0.06,0.029-0.113,0.074-0.16
					c0.043-0.046,0.102-0.07,0.174-0.07h0.442v3.8h3.13v0.71h-3.13v6.75c0,0.272,0.035,0.51,0.104,0.705
					c0.069,0.196,0.166,0.358,0.289,0.485c0.125,0.127,0.271,0.22,0.438,0.277c0.166,0.063,0.348,0.092,0.54,0.092
					c0.237,0,0.444-0.035,0.62-0.104c0.174-0.069,0.322-0.146,0.447-0.229c0.127-0.082,0.229-0.16,0.313-0.229
					c0.08-0.07,0.145-0.105,0.188-0.105c0.057,0,0.107,0.033,0.16,0.103l0.26,0.42c-0.252,0.278-0.571,0.506-0.965,0.676
					C256.642,36.752,256.236,36.837,255.816,36.837z"/>
				<path fill="#1B9BFF" d="M263.986,26.567c0.562,0,1.078,0.097,1.556,0.29s0.891,0.475,1.239,0.845
					c0.352,0.37,0.623,0.825,0.82,1.364c0.195,0.541,0.295,1.16,0.295,1.858c0,0.146-0.021,0.247-0.063,0.302
					c-0.043,0.055-0.111,0.08-0.205,0.08h-7.181v0.188c0,0.748,0.086,1.402,0.261,1.971c0.173,0.566,0.42,1.041,0.739,1.428
					c0.32,0.383,0.707,0.672,1.16,0.862c0.453,0.193,0.959,0.29,1.521,0.29c0.5,0,0.935-0.055,1.3-0.165
					c0.366-0.108,0.676-0.231,0.926-0.37c0.25-0.137,0.447-0.26,0.596-0.367c0.146-0.11,0.252-0.166,0.318-0.166
					c0.088,0,0.153,0.031,0.2,0.101l0.261,0.319c-0.16,0.201-0.371,0.388-0.636,0.562s-0.558,0.321-0.88,0.444
					s-0.671,0.222-1.04,0.296c-0.37,0.071-0.742,0.108-1.114,0.108c-0.681,0-1.301-0.117-1.859-0.354
					c-0.562-0.236-1.041-0.581-1.439-1.034c-0.4-0.454-0.712-1.009-0.934-1.665c-0.219-0.655-0.326-1.408-0.326-2.256
					c0-0.713,0.104-1.371,0.306-1.974c0.203-0.604,0.497-1.125,0.882-1.563c0.383-0.436,0.854-0.778,1.408-1.025
					C262.648,26.69,263.279,26.567,263.986,26.567z M264.002,27.277c-0.515,0-0.974,0.08-1.379,0.24
					c-0.406,0.16-0.757,0.39-1.054,0.69s-0.535,0.66-0.719,1.08c-0.186,0.42-0.307,0.89-0.365,1.411h6.551
					c0-0.534-0.073-1.013-0.221-1.438c-0.146-0.424-0.354-0.779-0.619-1.072c-0.268-0.293-0.584-0.521-0.957-0.675
					C264.867,27.355,264.455,27.277,264.002,27.277z"/>
				<path fill="#1B9BFF" d="M277.006,28.057c-0.032,0.034-0.063,0.063-0.095,0.086c-0.03,0.022-0.071,0.034-0.125,0.034
					c-0.066,0-0.158-0.045-0.274-0.135s-0.271-0.188-0.465-0.295c-0.192-0.106-0.437-0.205-0.726-0.295
					c-0.291-0.09-0.645-0.135-1.055-0.135c-0.574,0-1.082,0.102-1.525,0.305c-0.443,0.204-0.816,0.495-1.121,0.875
					c-0.303,0.38-0.534,0.84-0.694,1.38c-0.159,0.54-0.239,1.146-0.239,1.82c0,0.699,0.082,1.318,0.246,1.859
					c0.162,0.537,0.395,0.992,0.694,1.362c0.299,0.37,0.661,0.649,1.09,0.847c0.427,0.191,0.899,0.291,1.42,0.291
					c0.479,0,0.882-0.06,1.205-0.173c0.321-0.11,0.591-0.233,0.8-0.368c0.211-0.136,0.377-0.259,0.5-0.369
					c0.123-0.113,0.223-0.17,0.295-0.17c0.088,0,0.153,0.03,0.2,0.1l0.261,0.32c-0.154,0.197-0.348,0.387-0.58,0.561
					c-0.231,0.174-0.496,0.323-0.791,0.449c-0.293,0.127-0.609,0.226-0.955,0.295c-0.342,0.07-0.699,0.105-1.072,0.105
					c-0.635,0-1.213-0.115-1.732-0.348c-0.523-0.23-0.976-0.563-1.352-1c-0.379-0.438-0.674-0.973-0.883-1.604
					c-0.211-0.636-0.313-1.354-0.313-2.16c0-0.762,0.102-1.453,0.303-2.08c0.197-0.626,0.488-1.167,0.875-1.62
					c0.383-0.453,0.852-0.805,1.406-1.055s1.195-0.375,1.916-0.375c0.646,0,1.223,0.104,1.727,0.31s0.939,0.486,1.313,0.84
					L277.006,28.057z"/>
				<path fill="#1B9BFF" d="M285.906,36.677c-0.199,0-0.323-0.093-0.369-0.28l-0.141-1.27c-0.272,0.268-0.545,0.506-0.814,0.721
					c-0.27,0.213-0.553,0.396-0.846,0.539c-0.293,0.146-0.609,0.258-0.949,0.336c-0.342,0.076-0.715,0.114-1.12,0.114
					c-0.341,0-0.671-0.05-0.99-0.149c-0.319-0.101-0.604-0.254-0.851-0.461c-0.248-0.207-0.444-0.471-0.596-0.795
					c-0.148-0.322-0.227-0.711-0.227-1.164c0-0.42,0.12-0.811,0.357-1.17c0.24-0.361,0.615-0.674,1.125-0.938
					c0.513-0.269,1.168-0.479,1.973-0.642c0.803-0.16,1.771-0.254,2.896-0.281v-1.037c0-0.922-0.197-1.631-0.596-2.125
					c-0.396-0.497-0.984-0.745-1.768-0.745c-0.479,0-0.889,0.067-1.225,0.2c-0.338,0.133-0.623,0.28-0.854,0.44
					c-0.233,0.16-0.426,0.309-0.57,0.44s-0.271,0.198-0.367,0.198c-0.136,0-0.234-0.061-0.303-0.181l-0.17-0.29
					c0.521-0.52,1.064-0.913,1.643-1.18c0.57-0.266,1.223-0.4,1.947-0.4c0.533,0,1,0.085,1.398,0.255
					c0.4,0.17,0.73,0.414,0.994,0.73c0.266,0.316,0.463,0.7,0.598,1.149c0.133,0.451,0.197,0.953,0.197,1.506v6.479L285.906,36.677
					L285.906,36.677z M281.906,36.146c0.388,0,0.742-0.041,1.063-0.125c0.324-0.084,0.623-0.199,0.898-0.353
					c0.275-0.147,0.535-0.328,0.775-0.535c0.239-0.204,0.477-0.43,0.709-0.67v-2.59c-0.947,0.024-1.763,0.101-2.445,0.215
					c-0.684,0.117-1.246,0.275-1.688,0.478c-0.441,0.199-0.771,0.438-0.979,0.715c-0.211,0.277-0.314,0.592-0.314,0.945
					c0,0.334,0.057,0.621,0.165,0.862c0.108,0.243,0.255,0.443,0.437,0.603c0.182,0.156,0.392,0.271,0.631,0.346
					C281.396,36.109,281.646,36.146,281.906,36.146z"/>
			</g>
		</g>
	</g>
	<rect x="144.011" y="15" fill="#006CB6" width="1" height="30"/>
	<g>
		<g>
			<path fill="#006CB6" d="M28.253,17.083c0,0-0.569-0.077-1.67-0.077c-1.102-0.019-1.67,0.077-1.67,0.077l0,0l-0.057-0.814
				l0.758-0.078l-0.266-4.107h-1.12v-1.125l0,0c0,0,0.189-0.174,2.354-0.174s2.354,0.174,2.354,0.174l0,0v1.125h-1.119l-0.267,4.107
				l0.759,0.078L28.253,17.083L28.253,17.083z"/>
			<path fill="#006CB6" d="M24.458,17.199c0,0-0.551,0.156-1.557,0.563c-1.023,0.425-1.519,0.736-1.519,0.736l0,0l-0.36-0.736
				l0.664-0.351l-1.784-3.7l-1.043,0.444l-0.419-1.044l0,0c0,0,0.133-0.234,2.126-1.087c1.992-0.831,2.239-0.756,2.239-0.756l0,0
				l0.418,1.047l-1.043,0.426l1.309,3.914l0.722-0.25L24.458,17.199L24.458,17.199z"/>
			<path fill="#006CB6" d="M21.003,18.789c0,0-0.455,0.348-1.233,1.126c-0.777,0.792-1.12,1.276-1.12,1.276l0,0l-0.606-0.541
				l0.493-0.601L15.5,17.335l-0.799,0.814l-0.776-0.795l0,0c0,0,0.019-0.271,1.557-1.822c1.52-1.571,1.783-1.589,1.783-1.589l0,0
				l0.778,0.794l-0.799,0.814l2.658,3.102l0.588-0.504L21.003,18.789L21.003,18.789z"/>
			<path fill="#006CB6" d="M18.421,21.58c0,0-0.303,0.504-0.722,1.532c-0.436,1.026-0.568,1.608-0.568,1.608l0,0l-0.759-0.254
				l0.229-0.755l-3.815-1.319l-0.437,1.066l-1.025-0.426l0,0c0,0-0.075-0.251,0.76-2.306c0.836-2.036,1.045-2.151,1.045-2.151l0,0
				l1.024,0.426l-0.418,1.066l3.605,1.82l0.36-0.697L18.421,21.58L18.421,21.58z"/>
			<path fill="#006CB6" d="M17.056,25.164c0,0-0.076,0.583-0.095,1.707c0,1.124,0.095,1.705,0.095,1.705l0,0l-0.798,0.059
				l-0.075-0.775l-4.023,0.27v1.146h-1.102l0,0c0,0-0.171-0.191-0.171-2.4c0-2.21,0.171-2.421,0.171-2.421l0,0h1.102v1.162
				l4.023,0.27l0.075-0.774L17.056,25.164L17.056,25.164z"/>
			<path fill="#006CB6" d="M17.151,29.021c0,0,0.133,0.563,0.55,1.568c0.399,1.045,0.722,1.551,0.722,1.551l0,0l-0.722,0.367
				l-0.359-0.68l-3.605,1.82l0.417,1.049l-1.023,0.443l0,0c0,0-0.21-0.136-1.045-2.172c-0.835-2.033-0.76-2.285-0.76-2.285l0,0
				l1.025-0.426l0.436,1.064l3.816-1.316l-0.229-0.736L17.151,29.021L17.151,29.021z"/>
			<path fill="#006CB6" d="M18.668,32.529c0,0,0.343,0.465,1.103,1.279c0.777,0.795,1.252,1.123,1.252,1.123l0,0l-0.531,0.641
				l-0.589-0.504l-2.656,3.1l0.797,0.814l-0.777,0.795l0,0c0,0-0.266-0.021-1.784-1.59c-1.538-1.57-1.557-1.82-1.557-1.82l0,0
				l0.776-0.795l0.8,0.813l3.035-2.717l-0.492-0.6L18.668,32.529L18.668,32.529z"/>
			<path fill="#006CB6" d="M21.402,35.223c0,0,0.476,0.291,1.48,0.717c1.024,0.445,1.594,0.582,1.594,0.582l0,0l-0.267,0.773
				l-0.722-0.23l-1.29,3.896l1.045,0.447l-0.438,1.045l0,0c0,0-0.247,0.076-2.24-0.775c-1.992-0.832-2.104-1.063-2.104-1.063l0,0
				l0.416-1.046l1.045,0.443l1.782-3.699l-0.683-0.369L21.402,35.223L21.402,35.223z"/>
			<path fill="#006CB6" d="M24.932,36.617c0,0,0.551,0.078,1.651,0.098c1.1,0.02,1.67-0.098,1.67-0.098l0,0l0.075,0.836
				l-0.777,0.057l0.267,4.107h1.14v1.145l0,0c0,0-0.209,0.154-2.373,0.154s-2.354-0.154-2.354-0.154l0,0v-1.145h1.119l0.267-4.107
				l-0.758-0.057L24.932,36.617L24.932,36.617z"/>
			<path fill="#006CB6" d="M28.728,36.541c0,0,0.551-0.137,1.576-0.563c1.024-0.429,1.499-0.736,1.499-0.736l0,0l0.38,0.736
				l-0.684,0.35l1.783,3.701l1.044-0.445l0.418,1.045l0,0c0,0-0.113,0.232-2.126,1.086c-1.993,0.834-2.238,0.756-2.238,0.756l0,0
				l-0.418-1.047l1.044-0.426l-1.291-3.914l-0.74,0.252L28.728,36.541L28.728,36.541z"/>
			<path fill="#006CB6" d="M32.221,34.971c0,0,0.456-0.35,1.232-1.123c0.778-0.795,1.12-1.281,1.12-1.281l0,0l0.607,0.545
				l-0.494,0.603l3.037,2.713l0.797-0.813l0.779,0.795l0,0c0,0-0.021,0.271-1.559,1.821c-1.519,1.566-1.783,1.59-1.783,1.59l0,0
				l-0.777-0.795l0.796-0.813l-2.656-3.101l-0.589,0.503L32.221,34.971L32.221,34.971z"/>
			<path fill="#006CB6" d="M34.84,32.16c0,0,0.285-0.504,0.722-1.529c0.437-1.008,0.549-1.59,0.549-1.59l0,0l0.78,0.252
				l-0.229,0.737l3.815,1.317l0.438-1.065l1.006,0.425l0,0c0,0,0.076,0.252-0.74,2.287c-0.835,2.055-1.063,2.17-1.063,2.17l0,0
				l-1.023-0.426l0.437-1.068l-3.606-1.818l-0.359,0.697L34.84,32.16L34.84,32.16z"/>
			<path fill="#006CB6" d="M36.207,28.557c0,0,0.074-0.583,0.096-1.706c0-1.124-0.096-1.706-0.096-1.706l0,0l0.798-0.059
				l0.076,0.776l4.021-0.271V24.45h1.101l0,0c0,0,0.173,0.19,0.173,2.401c0,2.209-0.173,2.402-0.173,2.402l0,0h-1.1v-1.146
				l-4.021-0.271l-0.076,0.772L36.207,28.557L36.207,28.557z"/>
			<path fill="#006CB6" d="M36.11,24.661c0,0-0.15-0.562-0.549-1.589c-0.418-1.047-0.722-1.551-0.722-1.551l0,0l0.722-0.369
				l0.341,0.697l3.626-1.819l-0.437-1.068l1.023-0.444l0,0c0,0,0.229,0.137,1.044,2.17c0.835,2.035,0.76,2.287,0.76,2.287l0,0
				L40.895,23.4l-0.438-1.064l-3.813,1.335l0.229,0.737L36.11,24.661L36.11,24.661z"/>
			<path fill="#006CB6" d="M34.536,21.132c0,0-0.342-0.463-1.102-1.277C32.657,19.061,32.2,18.73,32.2,18.73l0,0l0.516-0.639
				l0.587,0.505l2.657-3.102l-0.798-0.814l0.778-0.794l0,0c0,0,0.267,0.018,1.784,1.588c1.538,1.571,1.557,1.821,1.557,1.821l0,0
				l-0.777,0.796l-0.798-0.813l-3.036,2.712l0.492,0.602L34.536,21.132L34.536,21.132z"/>
			<path fill="#006CB6" d="M31.785,18.458c0,0-0.493-0.289-1.501-0.736c-1.006-0.444-1.574-0.562-1.574-0.562l0,0l0.247-0.774
				l0.739,0.232l1.29-3.896l-1.044-0.444l0.418-1.046l0,0c0,0,0.247-0.078,2.239,0.774c2.012,0.834,2.127,1.065,2.127,1.065l0,0
				l-0.418,1.047l-1.044-0.445l-1.784,3.701l0.665,0.35L31.785,18.458L31.785,18.458z"/>
			<path fill="#006CB6" d="M22.314,22.722c0,0-0.229,0.252-0.608,0.834c-0.38,0.563-0.513,0.894-0.513,0.894l0,0l-0.438-0.252
				l0.229-0.409l-2.145-1.259l-0.379,0.582l-0.57-0.39l0,0c0,0,0-0.154,0.722-1.278c0.739-1.124,0.894-1.162,0.894-1.162l0,0
				l0.55,0.388l-0.381,0.58l1.956,1.532l0.304-0.37L22.314,22.722L22.314,22.722z"/>
			<path fill="#006CB6" d="M21.079,24.72c0,0-0.113,0.329-0.246,1.007c-0.134,0.677-0.134,1.026-0.134,1.026l0,0l-0.492-0.059
				l0.038-0.465l-2.432-0.33l-0.131,0.699l-0.665-0.138l0,0c0,0-0.077-0.153,0.171-1.472c0.265-1.319,0.38-1.416,0.38-1.416l0,0
				l0.663,0.117l-0.132,0.699l2.392,0.659l0.113-0.466L21.079,24.72L21.079,24.72z"/>
			<path fill="#006CB6" d="M20.699,27.045c0,0,0.021,0.35,0.152,1.025c0.113,0.679,0.247,1.009,0.247,1.009l0,0l-0.475,0.136
				L20.49,28.77l-2.371,0.644l0.133,0.676l-0.665,0.138l0,0c0,0-0.112-0.1-0.379-1.396c-0.268-1.339-0.19-1.476-0.19-1.476l0,0
				l0.665-0.135l0.132,0.697l2.448-0.33l-0.056-0.484L20.699,27.045L20.699,27.045z"/>
			<path fill="#006CB6" d="M21.212,29.352c0,0,0.151,0.313,0.513,0.871c0.38,0.563,0.626,0.834,0.626,0.834l0,0l-0.398,0.313
				L21.669,31l-1.956,1.53l0.381,0.581l-0.551,0.388l0,0c0,0-0.152-0.039-0.894-1.162c-0.739-1.125-0.722-1.278-0.722-1.278l0,0
				l0.57-0.388l0.379,0.58l2.126-1.237l-0.229-0.43L21.212,29.352L21.212,29.352z"/>
			<path fill="#006CB6" d="M22.541,31.25c0,0,0.266,0.232,0.816,0.621c0.55,0.387,0.872,0.521,0.872,0.521l0,0l-0.228,0.44
				l-0.418-0.229l-1.233,2.188l0.588,0.392l-0.38,0.582l0,0c0,0-0.151,0.02-1.252-0.736s-1.158-0.912-1.158-0.912l0,0l0.38-0.563
				l0.57,0.389l1.498-1.996l-0.359-0.313L22.541,31.25L22.541,31.25z"/>
			<path fill="#006CB6" d="M24.495,32.51c0,0,0.323,0.115,0.987,0.252c0.646,0.156,1.006,0.156,1.006,0.156l0,0l-0.057,0.502
				l-0.475-0.057l-0.305,2.5l0.665,0.135l-0.134,0.678l0,0c0,0-0.134,0.078-1.423-0.193c-1.312-0.252-1.405-0.387-1.405-0.387l0,0
				l0.133-0.68l0.685,0.137l0.626-2.424l-0.438-0.135L24.495,32.51L24.495,32.51z"/>
			<path fill="#006CB6" d="M26.773,32.916c0,0,0.343-0.02,1.007-0.135c0.664-0.137,0.986-0.271,0.986-0.271l0,0l0.134,0.484
				l-0.456,0.135l0.646,2.443l0.684-0.137l0.133,0.657l0,0c0,0-0.113,0.138-1.404,0.39c-1.291,0.271-1.424,0.19-1.424,0.19l0,0
				l-0.133-0.678l0.664-0.138l-0.323-2.5l-0.454,0.06L26.773,32.916L26.773,32.916z"/>
			<path fill="#006CB6" d="M29.031,32.412c0,0,0.306-0.154,0.875-0.521c0.568-0.389,0.814-0.641,0.814-0.641l0,0l0.305,0.406
				l-0.36,0.291l1.5,1.996l0.567-0.389l0.381,0.563l0,0c0,0-0.038,0.156-1.139,0.912c-1.102,0.756-1.254,0.736-1.254,0.736l0,0
				l-0.379-0.582l0.568-0.392l-1.233-2.17l-0.418,0.231L29.031,32.412L29.031,32.412z"/>
			<path fill="#006CB6" d="M30.93,31.057c0,0,0.228-0.271,0.608-0.834c0.379-0.541,0.511-0.873,0.511-0.873l0,0l0.437,0.234
				l-0.228,0.43l2.146,1.237l0.38-0.58l0.569,0.367l0,0c0,0,0,0.174-0.722,1.276c-0.74,1.125-0.894,1.185-0.894,1.185l0,0
				l-0.55-0.388l0.379-0.581l-1.955-1.531l-0.303,0.367L30.93,31.057L30.93,31.057z"/>
			<path fill="#006CB6" d="M32.183,29.08c0,0,0.114-0.35,0.247-1.008c0.132-0.677,0.151-1.047,0.151-1.047l0,0l0.476,0.059
				l-0.038,0.484l2.447,0.329l0.134-0.698l0.664,0.137l0,0c0,0,0.057,0.135-0.189,1.473c-0.267,1.299-0.38,1.396-0.38,1.396l0,0
				l-0.665-0.139l0.134-0.656l-2.371-0.658l-0.135,0.466L32.183,29.08L32.183,29.08z"/>
			<path fill="#006CB6" d="M32.582,26.734c0,0-0.021-0.348-0.151-1.027c-0.114-0.677-0.247-1.008-0.247-1.008l0,0l0.475-0.137
				l0.135,0.448l2.371-0.64l-0.134-0.7l0.665-0.134l0,0c0,0,0.113,0.096,0.38,1.414c0.266,1.338,0.189,1.473,0.189,1.473l0,0
				L35.6,26.561l-0.134-0.698l-2.447,0.328l0.057,0.484L32.582,26.734L32.582,26.734z"/>
			<path fill="#006CB6" d="M32.069,24.408c0,0-0.151-0.309-0.513-0.891c-0.38-0.582-0.627-0.834-0.627-0.834l0,0l0.398-0.311
				l0.283,0.369l1.955-1.53l-0.379-0.58l0.569-0.39l0,0c0,0,0.151,0.04,0.873,1.164c0.738,1.124,0.722,1.277,0.722,1.277l0,0
				L34.8,23.071l-0.397-0.581l-2.127,1.26l0.229,0.408L32.069,24.408L32.069,24.408z"/>
			<path fill="#006CB6" d="M30.721,22.47c0,0-0.265-0.232-0.815-0.621c-0.551-0.388-0.874-0.521-0.874-0.521l0,0l0.246-0.446
				l0.399,0.232l1.233-2.189l-0.568-0.389l0.379-0.582l0,0c0,0,0.151,0,1.254,0.736c1.101,0.756,1.138,0.912,1.138,0.912l0,0
				l-0.38,0.563l-0.567-0.388l-1.501,1.995l0.361,0.311L30.721,22.47L30.721,22.47z"/>
			<path fill="#006CB6" d="M28.748,21.211c0,0-0.323-0.115-0.969-0.272c-0.664-0.135-1.023-0.135-1.023-0.135l0,0l0.057-0.504
				l0.474,0.059l0.323-2.502l-0.683-0.135l0.132-0.677l0,0c0,0,0.134-0.079,1.424,0.192c1.311,0.252,1.404,0.369,1.404,0.369l0,0
				l-0.133,0.678l-0.684-0.135l-0.626,2.441l0.438,0.136L28.748,21.211L28.748,21.211z"/>
			<path fill="#006CB6" d="M26.471,20.824c0,0-0.361,0.018-1.007,0.135c-0.665,0.138-0.987,0.271-0.987,0.271l0,0l-0.151-0.483
				l0.455-0.135l-0.646-2.442l-0.663,0.135l-0.134-0.677l0,0c0,0,0.096-0.117,1.385-0.39c1.292-0.252,1.443-0.173,1.443-0.173l0,0
				l0.133,0.677l-0.685,0.136l0.322,2.481l0.475-0.039L26.471,20.824L26.471,20.824z"/>
			<path fill="#006CB6" d="M24.193,21.345c0,0-0.305,0.156-0.874,0.525c-0.55,0.387-0.814,0.64-0.814,0.64l0,0L22.2,22.103
				l0.36-0.29l-1.499-1.997l-0.569,0.387l-0.38-0.58l0,0c0,0,0.058-0.137,1.14-0.893c1.101-0.753,1.271-0.735,1.271-0.735l0,0
				l0.36,0.581l-0.569,0.386l1.233,2.171l0.417-0.23L24.193,21.345L24.193,21.345z"/>
			<path fill="#006CB6" d="M23.527,24.912c0,0-0.113,0.175-0.266,0.563c-0.171,0.389-0.208,0.602-0.208,0.602l0,0l-0.285-0.098
				l0.076-0.271l-1.424-0.484l-0.171,0.387l-0.381-0.154l0,0c0,0-0.019-0.096,0.285-0.852c0.305-0.774,0.398-0.814,0.398-0.814l0,0
				l0.38,0.155l-0.171,0.407l1.367,0.679l0.133-0.272L23.527,24.912L23.527,24.912z"/>
			<path fill="#006CB6" d="M23.015,26.269c0,0-0.018,0.213-0.018,0.619c-0.021,0.426,0.036,0.642,0.036,0.642l0,0l-0.305,0.038
				l-0.036-0.311l-1.5,0.118V27.8h-0.418l0,0c0,0-0.057-0.078-0.057-0.89c0-0.835,0.057-0.912,0.057-0.912l0,0h0.418v0.425
				l1.5,0.098l0.021-0.291L23.015,26.269L23.015,26.269z"/>
			<path fill="#006CB6" d="M23.072,27.703c0,0,0.038,0.213,0.208,0.602c0.153,0.387,0.268,0.58,0.268,0.58l0,0l-0.268,0.137
				l-0.132-0.252l-1.366,0.681l0.17,0.389l-0.379,0.179l0,0c0,0-0.096-0.063-0.398-0.816c-0.303-0.756-0.284-0.852-0.284-0.852l0,0
				l0.38-0.179l0.169,0.408l1.426-0.509L22.769,27.8L23.072,27.703L23.072,27.703z"/>
			<path fill="#006CB6" d="M23.642,29.021c0,0,0.132,0.174,0.417,0.465c0.286,0.31,0.475,0.426,0.475,0.426l0,0l-0.209,0.232
				l-0.209-0.177l-1.005,1.146l0.304,0.288l-0.284,0.312l0,0c0,0-0.096-0.021-0.684-0.6c-0.568-0.582-0.568-0.681-0.568-0.681l0,0
				l0.283-0.291l0.305,0.291l1.14-0.988l-0.189-0.23L23.642,29.021L23.642,29.021z"/>
			<path fill="#006CB6" d="M24.667,30.012c0,0,0.19,0.096,0.569,0.25c0.379,0.174,0.588,0.213,0.588,0.213l0,0l-0.095,0.291
				l-0.285-0.078l-0.475,1.455l0.397,0.174l-0.17,0.39l0,0c0,0-0.096,0.021-0.835-0.291s-0.797-0.406-0.797-0.406l0,0l0.17-0.389
				l0.38,0.176L24.78,30.4l-0.247-0.135L24.667,30.012L24.667,30.012z"/>
			<path fill="#006CB6" d="M25.976,30.514c0,0,0.229,0.039,0.627,0.039c0.417,0,0.625-0.039,0.625-0.039l0,0l0.021,0.313
				l-0.284,0.018l0.113,1.554l0.417-0.021v0.427l0,0c0,0-0.075,0.075-0.892,0.075c-0.797,0-0.873-0.075-0.873-0.075l0,0v-0.406
				h0.417l0.096-1.554l-0.284-0.018L25.976,30.514L25.976,30.514z"/>
			<path fill="#006CB6" d="M27.401,30.475c0,0,0.208-0.039,0.588-0.213c0.38-0.154,0.569-0.25,0.569-0.25l0,0l0.134,0.25
				l-0.247,0.135l0.663,1.396l0.38-0.176l0.171,0.389l0,0c0,0-0.057,0.096-0.797,0.406s-0.835,0.291-0.835,0.291l0,0l-0.171-0.389
				l0.398-0.174l-0.494-1.453l-0.266,0.096L27.401,30.475L27.401,30.475z"/>
			<path fill="#006CB6" d="M28.692,29.912c0,0,0.17-0.135,0.476-0.426c0.282-0.291,0.417-0.465,0.417-0.465l0,0l0.228,0.191
				l-0.189,0.229l1.139,0.988l0.305-0.311l0.284,0.311l0,0c0,0,0,0.1-0.568,0.682c-0.569,0.578-0.666,0.601-0.666,0.601l0,0
				L29.813,31.4l0.303-0.312l-1.006-1.124l-0.208,0.154L28.692,29.912L28.692,29.912z"/>
			<path fill="#006CB6" d="M29.677,28.867c0,0,0.114-0.196,0.266-0.563c0.171-0.392,0.209-0.624,0.209-0.624l0,0l0.285,0.099
				l-0.076,0.288l1.425,0.484l0.171-0.39l0.38,0.155l0,0c0,0,0.019,0.098-0.285,0.853c-0.304,0.774-0.397,0.813-0.397,0.813l0,0
				l-0.381-0.153l0.172-0.407l-1.367-0.679l-0.133,0.252L29.677,28.867L29.677,28.867z"/>
			<path fill="#006CB6" d="M30.19,27.51c0,0,0.038-0.215,0.038-0.622c0-0.427-0.038-0.639-0.038-0.639l0,0l0.304-0.038l0.02,0.29
				l1.519-0.098v-0.426h0.418l0,0c0,0,0.058,0.078,0.058,0.891c0,0.834-0.058,0.913-0.058,0.913l0,0h-0.418v-0.429l-1.519-0.115
				l-0.021,0.293L30.19,27.51L30.19,27.51z"/>
			<path fill="#006CB6" d="M30.171,26.056c0,0-0.059-0.212-0.209-0.602c-0.171-0.387-0.285-0.563-0.285-0.563l0,0l0.285-0.154
				l0.133,0.272l1.348-0.697l-0.172-0.39l0.381-0.174l0,0c0,0,0.095,0.059,0.397,0.813c0.323,0.778,0.285,0.854,0.285,0.854l0,0
				l-0.381,0.176l-0.17-0.408l-1.424,0.504l0.097,0.271L30.171,26.056L30.171,26.056z"/>
			<path fill="#006CB6" d="M29.583,24.72c0,0-0.134-0.158-0.417-0.467c-0.285-0.292-0.456-0.425-0.456-0.425l0,0l0.189-0.232
				l0.208,0.192l1.006-1.161l-0.303-0.312l0.284-0.288l0,0c0,0,0.094,0,0.684,0.579c0.568,0.58,0.568,0.678,0.568,0.678l0,0
				l-0.283,0.312l-0.305-0.312l-1.14,1.028l0.189,0.212L29.583,24.72L29.583,24.72z"/>
			<path fill="#006CB6" d="M28.539,23.73c0,0-0.172-0.115-0.552-0.271c-0.379-0.174-0.587-0.211-0.587-0.211l0,0l0.095-0.293
				l0.266,0.078l0.475-1.453l-0.379-0.174l0.152-0.389l0,0c0,0,0.094-0.019,0.834,0.291c0.76,0.311,0.797,0.407,0.797,0.407l0,0
				l-0.151,0.388l-0.397-0.175l-0.665,1.396l0.268,0.135L28.539,23.73L28.539,23.73z"/>
			<path fill="#006CB6" d="M27.209,23.207c0,0-0.209-0.02-0.606-0.037c-0.418,0-0.627,0.037-0.627,0.037l0,0l-0.038-0.309
				l0.285-0.021l-0.095-1.532h-0.417v-0.426l0,0c0,0,0.074-0.057,0.872-0.057c0.816-0.021,0.893,0.057,0.893,0.057l0,0v0.409
				l-0.418,0.017l-0.113,1.532l0.304,0.021L27.209,23.207L27.209,23.207z"/>
			<path fill="#006CB6" d="M25.786,23.248c0,0-0.209,0.057-0.588,0.211c-0.38,0.174-0.551,0.291-0.551,0.291l0,0l-0.152-0.271
				l0.268-0.134l-0.685-1.396l-0.38,0.176l-0.15-0.389l0,0c0,0,0.037-0.096,0.776-0.405c0.761-0.33,0.836-0.292,0.836-0.292l0,0
				l0.172,0.387L24.932,21.6l0.494,1.455l0.266-0.098L25.786,23.248L25.786,23.248z"/>
			<path fill="#006CB6" d="M24.495,23.848c0,0-0.171,0.134-0.454,0.425c-0.305,0.289-0.417,0.484-0.417,0.484l0,0l-0.248-0.212
				l0.189-0.214l-1.14-1.008l-0.284,0.291l-0.304-0.291l0,0c0,0,0.019-0.095,0.588-0.678c0.571-0.601,0.665-0.601,0.665-0.601l0,0
				l0.284,0.29l-0.284,0.311l0.986,1.162l0.229-0.193L24.495,23.848L24.495,23.848z"/>
		</g>
		<rect x="11.152" y="46.928" fill="#006CB6" width="119.859" height="2.287"/>
		<path fill="#006CB6" d="M117.156,22.683h-0.605l0,0c-0.153,0.448-0.229,0.504-0.57,0.504c-0.854,0-1.955-0.697-4.29-0.697
			c-3.566,0-5.978,1.921-5.978,4.729c0,1.438,0.529,2.715,1.858,3.819c2.469,2.055,8.371,3.526,8.371,6.687
			c0,1.979-1.767,3.256-4.423,3.256c-1.917,0-5.239-1.104-5.277-4.496l0,0h-0.664v4.94h0.664l0,0
			c0.19-0.465,0.456-0.696,0.836-0.696c0.74,0,2.695,0.973,5.029,0.973c3.437,0,6.245-2.348,6.245-5.217
			c0-1.221-0.38-2.363-1.918-3.644c-3.149-2.637-8.73-3.508-8.73-6.901c0-1.686,1.634-2.752,3.931-2.752
			c2.239,0,4.537,1.066,4.877,3.779l0,0h0.646L117.156,22.683L117.156,22.683z"/>
		<path fill="#006CB6" d="M55.376,26.461c0-2.228,0.627-2.925,2.372-2.925l0,0v-0.563h-7.496v0.563l0,0
			c1.782,0,2.372,0.602,2.372,2.925l0,0v11.475l0,0c0,2.364-0.665,2.944-2.372,2.944l0,0v0.543h7.496V40.88l0,0
			c-1.745,0-2.372-0.676-2.372-2.944l0,0V26.461L55.376,26.461z"/>
		<path fill="#006CB6" d="M79.822,27.935l-0.019-4.303h-0.7l0,0c-0.077,0.079-0.229,0.176-0.552,0.176
			c-0.949,0-2.602-1.181-6.435-1.181c-6.341,0-10.914,4.144-10.914,9.882c0,5.505,4.441,9.478,10.609,9.478
			c3.588,0,5.827-1.125,7.764-0.854c0.037,0,1.044-4.225,1.063-4.281l0,0h-0.568l0,0c-2.069,3.586-5.03,4.398-7.439,4.398
			c-4.612,0-8.562-3.955-8.562-9.322c0-4.979,3.171-8.566,8.236-8.566c3.322,0,5.941,1.802,6.948,4.573l0,0H79.822L79.822,27.935z"
			/>
		<path fill="#006CB6" d="M98.556,29.893H97.93l0,0c-0.285,1.568-0.835,1.783-2.26,1.783l0,0h-5.808v-7.868h5.998l0,0
			c2.296,0,3.019,0.153,3.492,2.19l0,0h0.398v-3.101H84.738v0.561l0,0c1.785,0,2.354,0.641,2.354,2.928l0,0v11.511l0,0
			c0,2.442-0.723,2.908-2.354,2.908l0,0v0.543h15.015l0.948-3.449h-0.626l0,0c-1.233,2.42-1.992,2.539-5.05,2.539l0,0h-3.644l0,0
			c-1.158,0-1.519-0.353-1.519-1.242l0,0v-6.607h5.161l0,0c2.146,0,2.468,0.195,2.905,1.768l0,0h0.625v-4.459h0.002V29.893z"/>
		<path fill="#006CB6" d="M128.336,26.386c0-2.229,0.625-2.928,2.371-2.928l0,0v-0.561h-7.496v0.561l0,0
			c1.783,0,2.372,0.603,2.372,2.928l0,0v11.474l0,0c0,2.363-0.663,2.945-2.372,2.945l0,0v0.543h7.496v-0.543l0,0
			c-1.745,0-2.371-0.681-2.371-2.945l0,0V26.386L128.336,26.386z"/>
		<path fill="#006CB6" d="M50.081,12.433h0.74v2.907l0,0c0,0.309,0.021,0.542,0.057,0.677c0.038,0.137,0.096,0.252,0.189,0.35
			c0.152,0.174,0.342,0.309,0.551,0.387c0.208,0.096,0.456,0.135,0.723,0.135c0.455,0,0.815-0.115,1.101-0.327
			c0.284-0.232,0.417-0.524,0.417-0.912l0,0v-3.216h0.74v3.254l0,0c0,0.563-0.209,1.011-0.627,1.358
			c-0.418,0.35-0.948,0.522-1.631,0.522c-0.4,0-0.76-0.058-1.082-0.193c-0.323-0.137-0.59-0.329-0.797-0.602
			c-0.151-0.154-0.247-0.329-0.305-0.523c-0.058-0.193-0.076-0.484-0.076-0.891l0,0V12.433L50.081,12.433z"/>
		<polygon fill="#006CB6" points="58.849,17.47 58.849,12.433 59.513,12.433 62.969,16.348 62.969,12.433 63.708,12.433 
			63.708,17.47 63.044,17.47 59.609,13.556 59.609,17.47 		"/>
		<polygon fill="#006CB6" points="68.245,17.47 68.245,12.433 68.985,12.433 68.985,17.47 		"/>
		<polygon fill="#006CB6" points="75.021,17.51 72.725,12.433 73.503,12.433 75.135,16.037 76.805,12.433 77.583,12.433 
			75.23,17.51 		"/>
		<polygon fill="#006CB6" points="81.417,17.47 81.417,12.433 84.568,12.433 84.568,13.072 82.157,13.072 82.157,14.603 
			84.511,14.603 84.511,15.262 82.157,15.262 82.157,16.831 84.644,16.831 84.644,17.47 		"/>
		<path fill="#006CB6" d="M89.01,17.47v-5.037h1.537l0,0c0.53,0,0.949,0.116,1.232,0.367c0.285,0.232,0.438,0.563,0.438,1.008
			c0,0.33-0.076,0.6-0.247,0.814c-0.152,0.193-0.398,0.348-0.739,0.445c0.075,0.039,0.169,0.117,0.246,0.194
			c0.075,0.058,0.17,0.192,0.304,0.366l0,0l1.271,1.842h-0.911l-0.892-1.316l0,0c-0.286-0.389-0.494-0.659-0.665-0.756
			c-0.17-0.116-0.36-0.174-0.588-0.174l0,0h-0.228v2.246L89.01,17.47L89.01,17.47L89.01,17.47z M89.77,14.623h0.625l0,0
			c0.342,0,0.606-0.077,0.777-0.194c0.172-0.136,0.266-0.329,0.266-0.6c0-0.272-0.075-0.466-0.245-0.602
			c-0.172-0.115-0.438-0.175-0.798-0.175l0,0H89.77V14.623L89.77,14.623z"/>
		<path fill="#006CB6" d="M96.696,17.083v-0.949l0,0c0.247,0.271,0.476,0.445,0.685,0.563c0.227,0.115,0.455,0.173,0.702,0.173
			c0.245,0,0.456-0.058,0.606-0.173c0.151-0.118,0.229-0.274,0.229-0.468c0-0.174-0.059-0.311-0.152-0.445
			c-0.095-0.117-0.342-0.29-0.721-0.522c-0.588-0.367-0.969-0.659-1.12-0.852c-0.152-0.216-0.229-0.449-0.229-0.737
			c0-0.389,0.151-0.699,0.437-0.951s0.664-0.387,1.12-0.387c0.188,0,0.398,0.039,0.589,0.098c0.209,0.037,0.397,0.135,0.606,0.252
			l0,0v0.813l0,0c-0.246-0.175-0.456-0.312-0.646-0.387c-0.188-0.079-0.397-0.117-0.588-0.117c-0.229,0-0.418,0.058-0.569,0.173
			c-0.151,0.098-0.228,0.252-0.228,0.429c0,0.252,0.304,0.56,0.93,0.929l0,0l0.114,0.059l0,0c0.492,0.312,0.836,0.582,0.986,0.794
			c0.151,0.234,0.229,0.524,0.229,0.853c0,0.389-0.152,0.72-0.438,0.969c-0.285,0.252-0.664,0.369-1.12,0.369
			c-0.284,0-0.529-0.038-0.759-0.117C97.132,17.375,96.905,17.257,96.696,17.083L96.696,17.083L96.696,17.083z"/>
		<polygon fill="#006CB6" points="103.815,17.47 103.815,12.433 104.554,12.433 104.554,17.47 		"/>
		<path fill="#006CB6" d="M111.006,13.112h-1.175v3.681h1.175l0,0c0.666,0,1.158-0.154,1.538-0.484s0.551-0.775,0.551-1.357
			c0-0.563-0.171-1.007-0.551-1.336C112.165,13.285,111.671,13.112,111.006,13.112L111.006,13.112L111.006,13.112L111.006,13.112z
			 M111.006,12.433c0.398,0,0.722,0.037,1.007,0.097c0.284,0.077,0.531,0.192,0.778,0.329c0.342,0.232,0.625,0.543,0.815,0.891
			c0.189,0.367,0.284,0.775,0.284,1.201c0,0.446-0.095,0.834-0.284,1.203c-0.19,0.367-0.475,0.659-0.815,0.892
			c-0.229,0.153-0.494,0.25-0.778,0.329c-0.285,0.076-0.607,0.096-1.007,0.096l0,0h-1.916v-5.037L111.006,12.433L111.006,12.433z"/>
		<path fill="#006CB6" d="M118.771,15.34h1.631l-0.814-1.823L118.771,15.34L118.771,15.34L118.771,15.34z M117.043,17.47
			l2.276-5.037h0.55l2.298,5.037h-0.778l-0.665-1.472h-2.238l-0.684,1.472H117.043L117.043,17.47z"/>
		<path fill="#006CB6" d="M127.994,13.112h-1.194v3.681h1.194l0,0c0.646,0,1.158-0.154,1.519-0.484
			c0.381-0.33,0.569-0.775,0.569-1.357c0-0.563-0.188-1.007-0.569-1.336C129.152,13.285,128.64,13.112,127.994,13.112
			L127.994,13.112L127.994,13.112L127.994,13.112z M127.994,12.433c0.38,0,0.723,0.037,0.987,0.097
			c0.285,0.077,0.55,0.192,0.777,0.329c0.359,0.232,0.627,0.543,0.815,0.891c0.209,0.367,0.306,0.775,0.306,1.201
			c0,0.446-0.097,0.834-0.306,1.203c-0.188,0.367-0.456,0.659-0.815,0.892c-0.229,0.153-0.492,0.25-0.759,0.329
			c-0.285,0.076-0.627,0.096-1.007,0.096l0,0h-1.936v-5.037L127.994,12.433L127.994,12.433z"/>
	</g>
</g>
</svg>
